<svg xmlns="http://www.w3.org/2000/svg" xmlns:xlink="http://www.w3.org/1999/xlink" width="500" zoomAndPan="magnify" viewBox="0 0 375 374.999991" height="500" preserveAspectRatio="xMidYMid meet" version="1.0"><defs><filter x="0%" y="0%" width="100%" height="100%" id="f9435f1534"><feColorMatrix values="0 0 0 0 1 0 0 0 0 1 0 0 0 0 1 0 0 0 1 0" color-interpolation-filters="sRGB"/></filter><mask id="fd505aea42"><g filter="url(#f9435f1534)"><rect x="-37.5" width="450" fill="#000000" y="-37.499999" height="449.999989" fill-opacity="0.79"/></g></mask><clipPath id="019848c820"><path d="M 0.28125 0.800781 L 144.28125 0.800781 L 144.28125 158.71875 L 0.28125 158.71875 Z M 0.28125 0.800781 " clip-rule="nonzero"/></clipPath><clipPath id="e6d1f309a2"><rect x="0" width="145" y="0" height="159"/></clipPath><mask id="b920d382da"><g filter="url(#f9435f1534)"><rect x="-37.5" width="450" fill="#000000" y="-37.499999" height="449.999989" fill-opacity="0.79"/></g></mask><clipPath id="5633e9d030"><path d="M 1 0.558594 L 65 0.558594 L 65 62.480469 L 1 62.480469 Z M 1 0.558594 " clip-rule="nonzero"/></clipPath><clipPath id="14ff2ae338"><rect x="0" width="66" y="0" height="63"/></clipPath><mask id="05521a46ee"><g filter="url(#f9435f1534)"><rect x="-37.5" width="450" fill="#000000" y="-37.499999" height="449.999989" fill-opacity="0.79"/></g></mask><clipPath id="6ffaa29d49"><path d="M 0.359375 0.800781 L 132 0.800781 L 132 100.878906 L 0.359375 100.878906 Z M 0.359375 0.800781 " clip-rule="nonzero"/></clipPath><clipPath id="2f678291df"><rect x="0" width="133" y="0" height="101"/></clipPath><mask id="c33c081f49"><g filter="url(#f9435f1534)"><rect x="-37.5" width="450" fill="#000000" y="-37.499999" height="449.999989" fill-opacity="0.79"/></g></mask><clipPath id="d7cb88fd47"><path d="M 1 0.558594 L 56 0.558594 L 56 41.359375 L 1 41.359375 Z M 1 0.558594 " clip-rule="nonzero"/></clipPath><clipPath id="a3e0a6970b"><rect x="0" width="57" y="0" height="42"/></clipPath><mask id="f45e71e1ff"><g filter="url(#f9435f1534)"><rect x="-37.5" width="450" fill="#000000" y="-37.499999" height="449.999989" fill-opacity="0.79"/></g></mask><clipPath id="b84b77ac93"><path d="M 1 0.558594 L 65 0.558594 L 65 62.480469 L 1 62.480469 Z M 1 0.558594 " clip-rule="nonzero"/></clipPath><clipPath id="901d29e037"><rect x="0" width="66" y="0" height="63"/></clipPath><mask id="942275c25c"><g filter="url(#f9435f1534)"><rect x="-37.5" width="450" fill="#000000" y="-37.499999" height="449.999989" fill-opacity="0.79"/></g></mask><clipPath id="bfaaf59503"><path d="M 1 1 L 74.839844 1 L 74.839844 110.839844 L 1 110.839844 Z M 1 1 " clip-rule="nonzero"/></clipPath><clipPath id="f041974e9b"><rect x="0" width="75" y="0" height="111"/></clipPath><mask id="95113d16dc"><g filter="url(#f9435f1534)"><rect x="-37.5" width="450" fill="#000000" y="-37.499999" height="449.999989" fill-opacity="0.79"/></g></mask><clipPath id="df85eb8008"><path d="M 0.398438 1 L 79.601562 1 L 79.601562 61.121094 L 0.398438 61.121094 Z M 0.398438 1 " clip-rule="nonzero"/></clipPath><clipPath id="f570364efb"><rect x="0" width="80" y="0" height="62"/></clipPath><mask id="83c2f164c1"><g filter="url(#f9435f1534)"><rect x="-37.5" width="450" fill="#000000" y="-37.499999" height="449.999989" fill-opacity="0.24"/></g></mask><clipPath id="2e7c5b4ae6"><path d="M 0.121094 0.0390625 L 26.519531 0.0390625 L 26.519531 46.359375 L 0.121094 46.359375 Z M 0.121094 0.0390625 " clip-rule="nonzero"/></clipPath><clipPath id="b54a51f2c3"><rect x="0" width="27" y="0" height="47"/></clipPath><mask id="8eb8cf216f"><g filter="url(#f9435f1534)"><rect x="-37.5" width="450" fill="#000000" y="-37.499999" height="449.999989" fill-opacity="0.24"/></g></mask><clipPath id="48fa896916"><path d="M 0.320312 0.28125 L 69.921875 0.28125 L 69.921875 62.921875 L 0.320312 62.921875 Z M 0.320312 0.28125 " clip-rule="nonzero"/></clipPath><clipPath id="9deaa34b00"><rect x="0" width="70" y="0" height="63"/></clipPath><mask id="e7e9d8a5f0"><g filter="url(#f9435f1534)"><rect x="-37.5" width="450" fill="#000000" y="-37.499999" height="449.999989" fill-opacity="0.24"/></g></mask><clipPath id="e0cfa02e4c"><path d="M 1 0.558594 L 65 0.558594 L 65 37.519531 L 1 37.519531 Z M 1 0.558594 " clip-rule="nonzero"/></clipPath><clipPath id="3a7e26f54e"><rect x="0" width="66" y="0" height="38"/></clipPath><mask id="1bd32d70c9"><g filter="url(#f9435f1534)"><rect x="-37.5" width="450" fill="#000000" y="-37.499999" height="449.999989" fill-opacity="0.24"/></g></mask><clipPath id="c35efc853e"><path d="M 0.199219 1 L 44.601562 1 L 44.601562 55.359375 L 0.199219 55.359375 Z M 0.199219 1 " clip-rule="nonzero"/></clipPath><clipPath id="7360d2b288"><rect x="0" width="45" y="0" height="56"/></clipPath></defs><g mask="url(#fd505aea42)"><g transform="matrix(1, 0, 0, 1, 95, 58)"><g clip-path="url(#e6d1f309a2)"><g clip-path="url(#019848c820)"><path fill="#00ff73" d="M 35.605469 92.617188 C 35.605469 60.988281 61.25 35.347656 92.878906 35.347656 C 115.191406 35.347656 134.523438 48.105469 143.980469 66.726562 C 144.117188 64.585938 144.195312 62.429688 144.195312 60.253906 C 144.195312 51.648438 143.085938 43.300781 141.011719 35.347656 L 116.660156 10.996094 C 103.316406 -2.347656 81.679688 -2.347656 68.332031 10.996094 L 10.453125 68.875 C -2.890625 82.222656 -2.890625 103.859375 10.453125 117.207031 L 51.710938 158.457031 C 64.261719 157.714844 76.183594 154.613281 87.035156 149.597656 C 58.148438 146.667969 35.605469 122.277344 35.605469 92.617188 Z M 35.605469 92.617188 " fill-opacity="1" fill-rule="nonzero"/></g></g></g></g><g mask="url(#b920d382da)"><g transform="matrix(1, 0, 0, 1, 155, 118)"><g clip-path="url(#14ff2ae338)"><g clip-path="url(#5633e9d030)"><path fill="#00ff73" d="M 20.429688 51.714844 L 45.863281 51.714844 C 45.863281 54.957031 46.351562 58.082031 47.253906 61.027344 C 57.613281 55.777344 64.71875 45.03125 64.71875 32.617188 C 64.71875 15.035156 50.464844 0.78125 32.878906 0.78125 C 15.292969 0.78125 1.039062 15.035156 1.039062 32.617188 C 1.039062 46.164062 9.503906 57.726562 21.425781 62.328125 C 20.777344 58.886719 20.429688 55.339844 20.429688 51.714844 Z M 20.429688 51.714844 " fill-opacity="1" fill-rule="nonzero"/></g></g></g></g><g mask="url(#05521a46ee)"><g transform="matrix(1, 0, 0, 1, 147, 58)"><g clip-path="url(#2f678291df)"><g clip-path="url(#6ffaa29d49)"><path fill="#000000" d="M 40.878906 35.347656 C 72.511719 35.347656 98.152344 60.988281 98.152344 92.617188 C 98.152344 95.332031 97.960938 97.996094 97.597656 100.605469 C 110.21875 98.390625 121.863281 93.320312 131.828125 86.082031 C 130.523438 79.777344 127.433594 73.769531 122.539062 68.875 L 64.660156 10.996094 C 51.316406 -2.347656 29.679688 -2.347656 16.332031 10.996094 L 0.621094 26.710938 C 1.296875 34.015625 2.925781 41.046875 5.375 47.675781 C 15.136719 39.957031 27.46875 35.347656 40.878906 35.347656 Z M 40.878906 35.347656 " fill-opacity="1" fill-rule="nonzero"/></g></g></g></g><g mask="url(#c33c081f49)"><g transform="matrix(1, 0, 0, 1, 164, 118)"><g clip-path="url(#a3e0a6970b)"><g clip-path="url(#d7cb88fd47)"><path fill="#000000" d="M 23.878906 0.78125 C 14.960938 0.78125 6.902344 4.453125 1.121094 10.363281 C 14.042969 26.6875 32.976562 38.035156 54.582031 41.058594 C 55.320312 38.371094 55.722656 35.542969 55.722656 32.617188 C 55.71875 15.035156 41.464844 0.78125 23.878906 0.78125 Z M 23.878906 0.78125 " fill-opacity="1" fill-rule="nonzero"/></g></g></g></g><g mask="url(#f45e71e1ff)"><g transform="matrix(1, 0, 0, 1, 155, 118)"><g clip-path="url(#901d29e037)"><g clip-path="url(#b84b77ac93)"><path fill="#12386c" d="M 20.429688 51.714844 L 45.863281 51.714844 C 45.863281 54.957031 46.351562 58.082031 47.253906 61.027344 C 57.613281 55.777344 64.71875 45.03125 64.71875 32.617188 C 64.71875 15.035156 50.464844 0.78125 32.878906 0.78125 C 15.292969 0.78125 1.039062 15.035156 1.039062 32.617188 C 1.039062 46.164062 9.503906 57.726562 21.425781 62.328125 C 20.777344 58.886719 20.429688 55.339844 20.429688 51.714844 Z M 20.429688 51.714844 " fill-opacity="1" fill-rule="nonzero"/></g></g></g></g><g mask="url(#942275c25c)"><g transform="matrix(1, 0, 0, 1, 205, 91)"><g clip-path="url(#f041974e9b)"><g clip-path="url(#bfaaf59503)"><path fill="#12386c" d="M 64.542969 35.875 L 29.726562 1.0625 C 29.632812 1.0625 29.546875 1.058594 29.453125 1.058594 C 19.636719 1.058594 10.175781 2.570312 1.285156 5.367188 C 23.890625 13.035156 40.152344 34.425781 40.152344 59.617188 C 40.152344 79.679688 29.835938 97.328125 14.222656 107.558594 C 18.316406 109.476562 22.882812 110.554688 27.703125 110.554688 C 32.519531 110.554688 37.085938 109.480469 41.179688 107.566406 L 64.539062 84.207031 C 77.886719 70.859375 77.886719 49.222656 64.542969 35.875 Z M 64.542969 35.875 " fill-opacity="1" fill-rule="nonzero"/></g></g></g></g><g mask="url(#95113d16dc)"><g transform="matrix(1, 0, 0, 1, 140, 182)"><g clip-path="url(#f570364efb)"><g clip-path="url(#df85eb8008)"><path fill="#12386c" d="M 79.332031 43.414062 C 67.800781 40.652344 57.636719 34.402344 49.992188 25.847656 C 49.289062 25.871094 48.589844 25.890625 47.878906 25.890625 C 28.351562 25.890625 11.105469 16.113281 0.769531 1.1875 C 0.742188 2.050781 0.730469 2.910156 0.730469 3.777344 C 0.730469 14.054688 2.390625 23.941406 5.445312 33.195312 L 23.332031 51.082031 C 36.675781 64.425781 58.3125 64.425781 71.660156 51.082031 Z M 79.332031 43.414062 " fill-opacity="1" fill-rule="nonzero"/></g></g></g></g><g mask="url(#83c2f164c1)"><g transform="matrix(1, 0, 0, 1, 219, 155)"><g clip-path="url(#b54a51f2c3)"><g clip-path="url(#2e7c5b4ae6)"><path fill="#4a4949" d="M 9.039062 46.210938 C 19.601562 35.820312 26.15625 21.363281 26.15625 5.378906 C 26.15625 3.734375 26.082031 2.105469 25.949219 0.5 C 24.425781 18.523438 14.558594 34.167969 0.226562 43.5625 C 2.972656 44.84375 5.929688 45.753906 9.039062 46.210938 Z M 9.039062 46.210938 " fill-opacity="1" fill-rule="nonzero"/></g></g></g></g><g mask="url(#8eb8cf216f)"><g transform="matrix(1, 0, 0, 1, 130, 155)"><g clip-path="url(#9deaa34b00)"><g clip-path="url(#48fa896916)"><path fill="#4a4949" d="M 59.992188 52.851562 C 59.289062 52.878906 58.589844 52.894531 57.878906 52.894531 C 27.90625 52.894531 3.3125 29.867188 0.816406 0.539062 C 0.683594 2.136719 0.605469 3.75 0.605469 5.378906 C 0.605469 37.011719 26.246094 62.652344 57.878906 62.652344 C 61.894531 62.652344 65.816406 62.238281 69.605469 61.453125 C 66.082031 58.949219 62.863281 56.0625 59.992188 52.851562 Z M 59.992188 52.851562 " fill-opacity="1" fill-rule="nonzero"/></g></g></g></g><g mask="url(#e7e9d8a5f0)"><g transform="matrix(1, 0, 0, 1, 155, 118)"><g clip-path="url(#3a7e26f54e)"><g clip-path="url(#e0cfa02e4c)"><path fill="#4a4949" d="M 32.878906 0.78125 C 15.292969 0.78125 1.039062 15.035156 1.039062 32.617188 C 1.039062 34.277344 1.167969 35.90625 1.414062 37.5 C 3.761719 22.230469 16.953125 10.539062 32.878906 10.539062 C 48.804688 10.539062 62 22.230469 64.347656 37.5 C 64.589844 35.90625 64.71875 34.277344 64.71875 32.617188 C 64.71875 15.035156 50.464844 0.78125 32.878906 0.78125 Z M 32.878906 0.78125 " fill-opacity="1" fill-rule="nonzero"/></g></g></g></g><g mask="url(#1bd32d70c9)"><g transform="matrix(1, 0, 0, 1, 175, 176)"><g clip-path="url(#7360d2b288)"><g clip-path="url(#c35efc853e)"><path fill="#4a4949" d="M 44.332031 49.414062 C 21.507812 43.953125 3.996094 24.832031 0.914062 1.175781 L 0.433594 1.175781 C 0.433594 26.09375 16.351562 47.296875 38.574219 55.171875 Z M 44.332031 49.414062 " fill-opacity="1" fill-rule="nonzero"/></g></g></g></g></svg>