<svg xmlns="http://www.w3.org/2000/svg" xmlns:xlink="http://www.w3.org/1999/xlink" width="40" zoomAndPan="magnify" viewBox="0 0 30 30.000001" height="40" preserveAspectRatio="xMidYMid meet" version="1.0"><defs><filter x="0%" y="0%" width="100%" height="100%" id="917e9d88b2"><feColorMatrix values="0 0 0 0 1 0 0 0 0 1 0 0 0 0 1 0 0 0 1 0" color-interpolation-filters="sRGB"/></filter><clipPath id="cb6046c90f"><path d="M 0.484375 0 L 29.515625 0 L 29.515625 29.03125 L 0.484375 29.03125 Z M 0.484375 0 " clip-rule="nonzero"/></clipPath><clipPath id="ac3b97113a"><path d="M 9.355469 9.390625 L 16 9.390625 L 16 16 L 9.355469 16 Z M 9.355469 9.390625 " clip-rule="nonzero"/></clipPath><mask id="c250e759ea"><g filter="url(#917e9d88b2)"><rect x="-3" width="36" fill="#000000" y="-3" height="36.000001" fill-opacity="0.79"/></g></mask><clipPath id="9427f8fc1d"><path d="M 0.355469 0.390625 L 6.117188 0.390625 L 6.117188 6.792969 L 0.355469 6.792969 Z M 0.355469 0.390625 " clip-rule="nonzero"/></clipPath><clipPath id="877e452619"><rect x="0" width="7" y="0" height="7"/></clipPath><mask id="70e0f15af4"><g filter="url(#917e9d88b2)"><rect x="-3" width="36" fill="#000000" y="-3" height="36.000001" fill-opacity="0.79"/></g></mask><clipPath id="13b2ef17f1"><path d="M 0.632812 0.613281 L 3.417969 0.613281 L 3.417969 3.398438 L 0.632812 3.398438 Z M 0.632812 0.613281 " clip-rule="nonzero"/></clipPath><clipPath id="f58800e6c9"><rect x="0" width="4" y="0" height="4"/></clipPath><clipPath id="81301e6ef6"><path d="M 11 9.390625 L 16.613281 9.390625 L 16.613281 14 L 11 14 Z M 11 9.390625 " clip-rule="nonzero"/></clipPath><mask id="80da0d37dc"><g filter="url(#917e9d88b2)"><rect x="-3" width="36" fill="#000000" y="-3" height="36.000001" fill-opacity="0.79"/></g></mask><clipPath id="8bef0b4fc1"><path d="M 0.398438 0.390625 L 5.613281 0.390625 L 5.613281 4.472656 L 0.398438 4.472656 Z M 0.398438 0.390625 " clip-rule="nonzero"/></clipPath><clipPath id="09509aa4d1"><rect x="0" width="6" y="0" height="5"/></clipPath><mask id="6cd8ceea0a"><g filter="url(#917e9d88b2)"><rect x="-3" width="36" fill="#000000" y="-3" height="36.000001" fill-opacity="0.79"/></g></mask><clipPath id="6b841c5c79"><path d="M 0.0976562 0.613281 L 2.417969 0.613281 L 2.417969 2.472656 L 0.0976562 2.472656 Z M 0.0976562 0.613281 " clip-rule="nonzero"/></clipPath><clipPath id="408d62d22b"><rect x="0" width="3" y="0" height="3"/></clipPath><mask id="1f559b6b0b"><g filter="url(#917e9d88b2)"><rect x="-3" width="36" fill="#000000" y="-3" height="36.000001" fill-opacity="0.79"/></g></mask><clipPath id="b67a0b7b62"><path d="M 0.632812 0.613281 L 3.417969 0.613281 L 3.417969 3.398438 L 0.632812 3.398438 Z M 0.632812 0.613281 " clip-rule="nonzero"/></clipPath><clipPath id="00362535fb"><rect x="0" width="4" y="0" height="4"/></clipPath><clipPath id="9c28967797"><path d="M 13 10 L 16.613281 10 L 16.613281 16 L 13 16 Z M 13 10 " clip-rule="nonzero"/></clipPath><mask id="8893637cb7"><g filter="url(#917e9d88b2)"><rect x="-3" width="36" fill="#000000" y="-3" height="36.000001" fill-opacity="0.79"/></g></mask><clipPath id="21394b588d"><path d="M 0.722656 0.683594 L 3.613281 0.683594 L 3.613281 5.097656 L 0.722656 5.097656 Z M 0.722656 0.683594 " clip-rule="nonzero"/></clipPath><clipPath id="2306cbdfec"><rect x="0" width="4" y="0" height="6"/></clipPath><clipPath id="1d55e9c23d"><path d="M 11 14 L 15 14 L 15 16.648438 L 11 16.648438 Z M 11 14 " clip-rule="nonzero"/></clipPath><mask id="ec42f9e001"><g filter="url(#917e9d88b2)"><rect x="-3" width="36" fill="#000000" y="-3" height="36.000001" fill-opacity="0.79"/></g></mask><clipPath id="08c3c15d38"><path d="M 0.167969 0.167969 L 3.417969 0.167969 L 3.417969 2.648438 L 0.167969 2.648438 Z M 0.167969 0.167969 " clip-rule="nonzero"/></clipPath><clipPath id="ddfdf038f3"><rect x="0" width="4" y="0" height="3"/></clipPath><mask id="f0c558c445"><g filter="url(#917e9d88b2)"><rect x="-3" width="36" fill="#000000" y="-3" height="36.000001" fill-opacity="0.24"/></g></mask><clipPath id="9cbce9ddb4"><path d="M 0.1875 0.238281 L 1.347656 0.238281 L 1.347656 2.097656 L 0.1875 2.097656 Z M 0.1875 0.238281 " clip-rule="nonzero"/></clipPath><clipPath id="45db6b0848"><rect x="0" width="2" y="0" height="3"/></clipPath><mask id="586d5d3164"><g filter="url(#917e9d88b2)"><rect x="-3" width="36" fill="#000000" y="-3" height="36.000001" fill-opacity="0.24"/></g></mask><clipPath id="d3b51ea524"><path d="M 0.703125 0.238281 L 3.722656 0.238281 L 3.722656 2.792969 L 0.703125 2.792969 Z M 0.703125 0.238281 " clip-rule="nonzero"/></clipPath><clipPath id="02cedb2fd9"><rect x="0" width="4" y="0" height="3"/></clipPath><mask id="bbdf99fbc8"><g filter="url(#917e9d88b2)"><rect x="-3" width="36" fill="#000000" y="-3" height="36.000001" fill-opacity="0.24"/></g></mask><clipPath id="6cef8801a9"><path d="M 0.632812 0.613281 L 3.417969 0.613281 L 3.417969 2.472656 L 0.632812 2.472656 Z M 0.632812 0.613281 " clip-rule="nonzero"/></clipPath><clipPath id="700f2dc151"><rect x="0" width="4" y="0" height="3"/></clipPath><clipPath id="c91df81244"><path d="M 12 13 L 15 13 L 15 16.648438 L 12 16.648438 Z M 12 13 " clip-rule="nonzero"/></clipPath><mask id="714ebeb55b"><g filter="url(#917e9d88b2)"><rect x="-3" width="36" fill="#000000" y="-3" height="36.000001" fill-opacity="0.24"/></g></mask><clipPath id="da1662c11c"><path d="M 0.5625 1 L 2.417969 1 L 2.417969 3.257812 L 0.5625 3.257812 Z M 0.5625 1 " clip-rule="nonzero"/></clipPath><clipPath id="31898d7e68"><rect x="0" width="3" y="0" height="4"/></clipPath></defs><g clip-path="url(#cb6046c90f)"><path fill="#ffffff" d="M 0.484375 0 L 29.515625 0 L 29.515625 29.03125 L 0.484375 29.03125 Z M 0.484375 0 " fill-opacity="1" fill-rule="nonzero"/><path fill="#ffffff" d="M 0.484375 0 L 29.515625 0 L 29.515625 29.03125 L 0.484375 29.03125 Z M 0.484375 0 " fill-opacity="1" fill-rule="nonzero"/></g><g clip-path="url(#ac3b97113a)"><g mask="url(#c250e759ea)"><g transform="matrix(1, 0, 0, 1, 9, 9)"><g clip-path="url(#877e452619)"><g clip-path="url(#9427f8fc1d)"><path fill="#00ff73" d="M 1.847656 4.0625 C 1.847656 2.839844 2.839844 1.847656 4.0625 1.847656 C 4.925781 1.847656 5.675781 2.339844 6.039062 3.0625 C 6.046875 2.980469 6.046875 2.894531 6.046875 2.8125 C 6.046875 2.480469 6.003906 2.15625 5.925781 1.847656 L 4.984375 0.90625 C 4.464844 0.390625 3.628906 0.390625 3.113281 0.90625 L 0.875 3.144531 C 0.355469 3.660156 0.355469 4.5 0.875 5.015625 L 2.46875 6.613281 C 2.957031 6.582031 3.417969 6.464844 3.835938 6.269531 C 2.71875 6.15625 1.847656 5.210938 1.847656 4.0625 Z M 1.847656 4.0625 " fill-opacity="1" fill-rule="nonzero"/></g></g></g></g></g><g mask="url(#70e0f15af4)"><g transform="matrix(1, 0, 0, 1, 11, 11)"><g clip-path="url(#f58800e6c9)"><g clip-path="url(#13b2ef17f1)"><path fill="#00ff73" d="M 1.582031 2.804688 L 2.566406 2.804688 C 2.566406 2.929688 2.585938 3.050781 2.617188 3.164062 C 3.019531 2.960938 3.296875 2.542969 3.296875 2.0625 C 3.296875 1.382812 2.742188 0.832031 2.0625 0.832031 C 1.382812 0.832031 0.832031 1.382812 0.832031 2.0625 C 0.832031 2.589844 1.160156 3.035156 1.621094 3.214844 C 1.59375 3.082031 1.582031 2.945312 1.582031 2.804688 Z M 1.582031 2.804688 " fill-opacity="1" fill-rule="nonzero"/></g></g></g></g><g clip-path="url(#81301e6ef6)"><g mask="url(#80da0d37dc)"><g transform="matrix(1, 0, 0, 1, 11, 9)"><g clip-path="url(#09509aa4d1)"><g clip-path="url(#8bef0b4fc1)"><path fill="#000000" d="M 2.0625 1.847656 C 3.285156 1.847656 4.277344 2.839844 4.277344 4.0625 C 4.277344 4.167969 4.273438 4.273438 4.257812 4.375 C 4.746094 4.289062 5.195312 4.089844 5.582031 3.8125 C 5.53125 3.566406 5.414062 3.335938 5.222656 3.144531 L 2.984375 0.90625 C 2.464844 0.390625 1.628906 0.390625 1.113281 0.90625 L 0.503906 1.511719 C 0.53125 1.796875 0.59375 2.066406 0.6875 2.324219 C 1.066406 2.027344 1.542969 1.847656 2.0625 1.847656 Z M 2.0625 1.847656 " fill-opacity="1" fill-rule="nonzero"/></g></g></g></g></g><g mask="url(#6cd8ceea0a)"><g transform="matrix(1, 0, 0, 1, 12, 11)"><g clip-path="url(#408d62d22b)"><g clip-path="url(#6b841c5c79)"><path fill="#000000" d="M 1.0625 0.832031 C 0.71875 0.832031 0.40625 0.972656 0.183594 1.203125 C 0.683594 1.835938 1.414062 2.273438 2.25 2.390625 C 2.28125 2.285156 2.296875 2.175781 2.296875 2.0625 C 2.296875 1.382812 1.742188 0.832031 1.0625 0.832031 Z M 1.0625 0.832031 " fill-opacity="1" fill-rule="nonzero"/></g></g></g></g><g mask="url(#1f559b6b0b)"><g transform="matrix(1, 0, 0, 1, 11, 11)"><g clip-path="url(#00362535fb)"><g clip-path="url(#b67a0b7b62)"><path fill="#12386c" d="M 1.582031 2.804688 L 2.566406 2.804688 C 2.566406 2.929688 2.585938 3.050781 2.617188 3.164062 C 3.019531 2.960938 3.296875 2.542969 3.296875 2.0625 C 3.296875 1.382812 2.742188 0.832031 2.0625 0.832031 C 1.382812 0.832031 0.832031 1.382812 0.832031 2.0625 C 0.832031 2.589844 1.160156 3.035156 1.621094 3.214844 C 1.59375 3.082031 1.582031 2.945312 1.582031 2.804688 Z M 1.582031 2.804688 " fill-opacity="1" fill-rule="nonzero"/></g></g></g></g><g clip-path="url(#9c28967797)"><g mask="url(#8893637cb7)"><g transform="matrix(1, 0, 0, 1, 13, 10)"><g clip-path="url(#2306cbdfec)"><g clip-path="url(#21394b588d)"><path fill="#12386c" d="M 3.222656 2.144531 L 1.875 0.796875 C 1.871094 0.796875 1.867188 0.796875 1.863281 0.796875 C 1.484375 0.796875 1.121094 0.855469 0.773438 0.964844 C 1.648438 1.261719 2.277344 2.089844 2.277344 3.0625 C 2.277344 3.839844 1.878906 4.523438 1.277344 4.917969 C 1.433594 4.992188 1.609375 5.035156 1.796875 5.035156 C 1.984375 5.035156 2.160156 4.992188 2.320312 4.917969 L 3.222656 4.015625 C 3.738281 3.5 3.738281 2.660156 3.222656 2.144531 Z M 3.222656 2.144531 " fill-opacity="1" fill-rule="nonzero"/></g></g></g></g></g><g clip-path="url(#1d55e9c23d)"><g mask="url(#ec42f9e001)"><g transform="matrix(1, 0, 0, 1, 11, 14)"><g clip-path="url(#ddfdf038f3)"><g clip-path="url(#08c3c15d38)"><path fill="#12386c" d="M 3.28125 1.957031 C 2.832031 1.851562 2.441406 1.609375 2.144531 1.277344 C 2.117188 1.28125 2.089844 1.28125 2.0625 1.28125 C 1.308594 1.28125 0.640625 0.902344 0.238281 0.324219 C 0.238281 0.359375 0.238281 0.390625 0.238281 0.425781 C 0.238281 0.824219 0.300781 1.203125 0.421875 1.5625 L 1.113281 2.253906 C 1.628906 2.773438 2.464844 2.773438 2.984375 2.253906 Z M 3.28125 1.957031 " fill-opacity="1" fill-rule="nonzero"/></g></g></g></g></g><g mask="url(#f0c558c445)"><g transform="matrix(1, 0, 0, 1, 14, 13)"><g clip-path="url(#45db6b0848)"><g clip-path="url(#9cbce9ddb4)"><path fill="#4a4949" d="M 0.617188 2.023438 C 1.027344 1.621094 1.28125 1.058594 1.28125 0.441406 C 1.28125 0.378906 1.277344 0.316406 1.269531 0.253906 C 1.210938 0.949219 0.832031 1.554688 0.277344 1.917969 C 0.382812 1.96875 0.496094 2.003906 0.617188 2.023438 Z M 0.617188 2.023438 " fill-opacity="1" fill-rule="nonzero"/></g></g></g></g><g mask="url(#586d5d3164)"><g transform="matrix(1, 0, 0, 1, 10, 13)"><g clip-path="url(#02cedb2fd9)"><g clip-path="url(#d3b51ea524)"><path fill="#4a4949" d="M 3.144531 2.277344 C 3.117188 2.28125 3.089844 2.28125 3.0625 2.28125 C 1.902344 2.28125 0.953125 1.390625 0.855469 0.253906 C 0.847656 0.316406 0.847656 0.378906 0.847656 0.441406 C 0.847656 1.664062 1.839844 2.65625 3.0625 2.65625 C 3.21875 2.65625 3.371094 2.640625 3.515625 2.613281 C 3.378906 2.515625 3.253906 2.402344 3.144531 2.277344 Z M 3.144531 2.277344 " fill-opacity="1" fill-rule="nonzero"/></g></g></g></g><g mask="url(#bbdf99fbc8)"><g transform="matrix(1, 0, 0, 1, 11, 11)"><g clip-path="url(#700f2dc151)"><g clip-path="url(#6cef8801a9)"><path fill="#4a4949" d="M 2.0625 0.832031 C 1.382812 0.832031 0.832031 1.382812 0.832031 2.0625 C 0.832031 2.128906 0.835938 2.191406 0.84375 2.253906 C 0.9375 1.660156 1.445312 1.210938 2.0625 1.210938 C 2.679688 1.210938 3.191406 1.660156 3.28125 2.253906 C 3.289062 2.191406 3.296875 2.128906 3.296875 2.0625 C 3.296875 1.382812 2.742188 0.832031 2.0625 0.832031 Z M 2.0625 0.832031 " fill-opacity="1" fill-rule="nonzero"/></g></g></g></g><g clip-path="url(#c91df81244)"><g mask="url(#714ebeb55b)"><g transform="matrix(1, 0, 0, 1, 12, 13)"><g clip-path="url(#31898d7e68)"><g clip-path="url(#da1662c11c)"><path fill="#4a4949" d="M 2.28125 2.957031 C 1.398438 2.746094 0.71875 2.007812 0.601562 1.089844 L 0.582031 1.089844 C 0.582031 2.054688 1.195312 2.875 2.058594 3.179688 Z M 2.28125 2.957031 " fill-opacity="1" fill-rule="nonzero"/></g></g></g></g></g></svg>