<svg xmlns="http://www.w3.org/2000/svg" xmlns:xlink="http://www.w3.org/1999/xlink" width="40" zoomAndPan="magnify" viewBox="0 0 30 30.000001" height="40" preserveAspectRatio="xMidYMid meet" version="1.0"><defs><clipPath id="f6260ca4fd"><path d="M 0.484375 0 L 29.515625 0 L 29.515625 29.03125 L 0.484375 29.03125 Z M 0.484375 0 " clip-rule="nonzero"/></clipPath><clipPath id="140b6d15ee"><path d="M 11.765625 8.730469 L 18.296875 8.730469 L 18.296875 15.261719 L 11.765625 15.261719 Z M 11.765625 8.730469 " clip-rule="nonzero"/></clipPath><clipPath id="38d1dd94c9"><path d="M 10.457031 14.464844 L 11.492188 14.464844 L 11.492188 15.5 L 10.457031 15.5 Z M 10.457031 14.464844 " clip-rule="nonzero"/></clipPath><clipPath id="cf02642c12"><path d="M 10.972656 14.464844 C 10.6875 14.464844 10.457031 14.695312 10.457031 14.980469 C 10.457031 15.269531 10.6875 15.5 10.972656 15.5 C 11.257812 15.5 11.492188 15.269531 11.492188 14.980469 C 11.492188 14.695312 11.257812 14.464844 10.972656 14.464844 Z M 10.972656 14.464844 " clip-rule="nonzero"/></clipPath></defs><g clip-path="url(#f6260ca4fd)"><path fill="#ffffff" d="M 0.484375 0 L 29.515625 0 L 29.515625 29.03125 L 0.484375 29.03125 Z M 0.484375 0 " fill-opacity="1" fill-rule="nonzero"/><path fill="#ffffff" d="M 0.484375 0 L 29.515625 0 L 29.515625 29.03125 L 0.484375 29.03125 Z M 0.484375 0 " fill-opacity="1" fill-rule="nonzero"/></g><g clip-path="url(#140b6d15ee)"><path fill="#00ff73" d="M 18.511719 12.109375 C 18.511719 12.5625 18.425781 13.007812 18.25 13.421875 C 18.078125 13.824219 17.835938 14.183594 17.527344 14.496094 C 17.214844 14.804688 16.855469 15.046875 16.453125 15.21875 C 16.035156 15.394531 15.59375 15.484375 15.140625 15.484375 L 13.617188 15.484375 L 15.136719 14.628906 L 15.140625 14.628906 C 16.527344 14.628906 17.65625 13.496094 17.65625 12.109375 C 17.65625 10.722656 16.527344 9.589844 15.140625 9.589844 L 12.625 9.589844 L 12.625 11.898438 L 14.5 10.835938 C 14.804688 10.664062 15.164062 10.617188 15.503906 10.703125 C 15.84375 10.792969 16.132812 11.007812 16.316406 11.304688 C 16.507812 11.621094 16.566406 11.992188 16.472656 12.347656 C 16.378906 12.707031 16.152344 13.003906 15.832031 13.183594 L 11.765625 15.484375 L 11.765625 14.496094 L 15.410156 12.4375 C 15.523438 12.371094 15.609375 12.265625 15.640625 12.132812 C 15.675781 12.003906 15.65625 11.871094 15.585938 11.753906 C 15.445312 11.527344 15.15625 11.453125 14.921875 11.585938 L 11.765625 13.371094 L 11.765625 8.734375 L 15.140625 8.734375 C 15.59375 8.734375 16.039062 8.824219 16.453125 9 C 16.855469 9.167969 17.214844 9.414062 17.527344 9.722656 C 17.835938 10.03125 18.078125 10.394531 18.25 10.796875 C 18.425781 11.210938 18.511719 11.652344 18.511719 12.109375 Z M 18.511719 12.109375 " fill-opacity="1" fill-rule="nonzero"/></g><g clip-path="url(#38d1dd94c9)"><g clip-path="url(#cf02642c12)"><path fill="#003479" d="M 10.457031 14.464844 L 11.492188 14.464844 L 11.492188 15.5 L 10.457031 15.5 Z M 10.457031 14.464844 " fill-opacity="1" fill-rule="nonzero"/></g></g></svg>