<svg xmlns="http://www.w3.org/2000/svg" xmlns:xlink="http://www.w3.org/1999/xlink" width="40" zoomAndPan="magnify" viewBox="0 0 30 30.000001" height="40" preserveAspectRatio="xMidYMid meet" version="1.0"><defs><clipPath id="7d797eb5ca"><path d="M 0.484375 0 L 29.515625 0 L 29.515625 29.03125 L 0.484375 29.03125 Z M 0.484375 0 " clip-rule="nonzero"/></clipPath><clipPath id="93ef4f84bb"><path d="M 12 12 L 18.859375 12 L 18.859375 16.644531 L 12 16.644531 Z M 12 12 " clip-rule="nonzero"/></clipPath><clipPath id="a4c793850d"><path d="M 9.425781 6.484375 L 18.859375 6.484375 L 18.859375 16.644531 L 9.425781 16.644531 Z M 9.425781 6.484375 " clip-rule="nonzero"/></clipPath><clipPath id="fa90be6021"><path d="M 11 15 L 13 15 L 13 16.644531 L 11 16.644531 Z M 11 15 " clip-rule="nonzero"/></clipPath></defs><g clip-path="url(#7d797eb5ca)"><path fill="#ffffff" d="M 0.484375 0 L 29.515625 0 L 29.515625 29.03125 L 0.484375 29.03125 Z M 0.484375 0 " fill-opacity="1" fill-rule="nonzero"/><path fill="#ffffff" d="M 0.484375 0 L 29.515625 0 L 29.515625 29.03125 L 0.484375 29.03125 Z M 0.484375 0 " fill-opacity="1" fill-rule="nonzero"/></g><g clip-path="url(#93ef4f84bb)"><path fill="#00ff73" d="M 17.304688 14.445312 C 17.609375 13.914062 17.78125 13.296875 17.78125 12.640625 C 17.78125 12.421875 17.761719 12.210938 17.726562 12.003906 C 17.578125 12.824219 17.144531 13.542969 16.527344 14.054688 C 16.171875 14.347656 15.640625 14.289062 15.363281 13.917969 L 14.84375 13.230469 C 14.757812 13.117188 14.621094 13.046875 14.476562 13.046875 L 12.496094 13.046875 C 12.359375 13.050781 12.273438 13.191406 12.332031 13.3125 L 12.414062 13.46875 C 12.558594 13.761719 12.847656 13.957031 13.171875 13.980469 L 13.289062 13.992188 L 13.804688 14.03125 C 13.949219 14.042969 14.082031 14.125 14.15625 14.25 L 14.390625 14.628906 L 14.519531 14.84375 L 15.25 16.039062 C 15.265625 16.058594 15.28125 16.078125 15.300781 16.09375 C 15.351562 16.136719 15.425781 16.15625 15.496094 16.140625 C 17.394531 15.671875 18.851562 14.097656 19.15625 12.144531 C 18.890625 13.148438 18.207031 13.980469 17.304688 14.445312 " fill-opacity="1" fill-rule="nonzero"/></g><g clip-path="url(#a4c793850d)"><path fill="#003479" d="M 14.015625 14.332031 C 13.96875 14.253906 13.882812 14.203125 13.792969 14.195312 L 13.160156 14.144531 C 12.78125 14.117188 12.4375 13.886719 12.265625 13.542969 L 12.191406 13.394531 C 12.136719 13.289062 12.136719 13.164062 12.195312 13.058594 C 12.257812 12.953125 12.367188 12.890625 12.484375 12.886719 L 12.496094 12.882812 L 13.132812 12.882812 C 12.925781 12.558594 12.550781 12.375 12.167969 12.410156 L 11.507812 12.472656 C 11.226562 12.5 10.972656 12.304688 10.917969 12.027344 C 10.878906 11.820312 10.859375 11.605469 10.859375 11.386719 C 10.859375 10.285156 11.378906 9.300781 12.183594 8.667969 C 11.386719 9.191406 10.765625 9.964844 10.429688 10.875 C 10.730469 8.679688 12.613281 6.992188 14.886719 6.992188 C 16.296875 6.992188 17.554688 7.640625 18.378906 8.652344 C 17.503906 7.355469 16.019531 6.5 14.332031 6.496094 C 11.636719 6.488281 9.429688 8.683594 9.425781 11.378906 C 9.425781 12.328125 9.695312 13.214844 10.160156 13.964844 C 10.171875 13.980469 10.179688 14 10.191406 14.015625 L 10.84375 13.902344 C 11.136719 13.855469 11.375 14.136719 11.277344 14.414062 C 11.273438 14.421875 11.273438 14.425781 11.273438 14.425781 C 11.691406 14.578125 11.621094 14.988281 11.621094 14.988281 C 11.992188 15.160156 11.839844 15.507812 11.839844 15.507812 C 11.972656 15.5625 12.019531 15.667969 12.03125 15.703125 C 12.035156 15.722656 12.042969 15.738281 12.050781 15.757812 L 12.304688 16.40625 C 12.347656 16.519531 12.480469 16.613281 12.601562 16.613281 C 12.753906 16.613281 12.859375 16.460938 12.804688 16.316406 L 12.6875 16 L 12.527344 15.578125 C 12.515625 15.550781 12.535156 15.519531 12.570312 15.515625 C 12.589844 15.515625 12.609375 15.527344 12.617188 15.546875 L 12.824219 16.046875 L 12.980469 16.417969 C 13.03125 16.546875 13.171875 16.621094 13.304688 16.582031 C 13.464844 16.535156 13.542969 16.359375 13.472656 16.207031 L 13.089844 15.417969 C 13.074219 15.386719 13.097656 15.347656 13.132812 15.34375 C 13.15625 15.339844 13.175781 15.351562 13.1875 15.371094 L 13.652344 16.234375 L 13.707031 16.34375 C 13.765625 16.449219 13.890625 16.503906 14.003906 16.464844 C 14.09375 16.4375 14.152344 16.363281 14.167969 16.277344 C 14.175781 16.226562 14.167969 16.171875 14.144531 16.121094 L 13.78125 15.417969 C 13.765625 15.386719 13.777344 15.347656 13.808594 15.335938 C 13.835938 15.324219 13.867188 15.335938 13.882812 15.363281 L 14.292969 16.136719 C 14.328125 16.199219 14.375 16.25 14.433594 16.28125 C 14.53125 16.332031 14.648438 16.339844 14.757812 16.292969 C 14.777344 16.28125 14.796875 16.269531 14.8125 16.257812 C 14.957031 16.152344 15.003906 15.949219 14.90625 15.789062 L 14.015625 14.332031 " fill-opacity="1" fill-rule="nonzero"/></g><path fill="#00ff73" d="M 10.46875 14.628906 L 10.980469 14.542969 C 11.136719 14.515625 11.238281 14.371094 11.214844 14.21875 C 11.1875 14.0625 11.042969 13.957031 10.886719 13.984375 L 10.375 14.070312 C 10.21875 14.09375 10.117188 14.242188 10.140625 14.394531 C 10.167969 14.550781 10.3125 14.652344 10.46875 14.628906 " fill-opacity="1" fill-rule="nonzero"/><path fill="#00ff73" d="M 11.476562 14.773438 C 11.449219 14.621094 11.304688 14.515625 11.152344 14.542969 L 10.449219 14.675781 C 10.296875 14.699219 10.191406 14.847656 10.214844 15 C 10.242188 15.15625 10.386719 15.257812 10.542969 15.234375 L 11.242188 15.097656 C 11.398438 15.074219 11.5 14.929688 11.476562 14.773438 " fill-opacity="1" fill-rule="nonzero"/><path fill="#00ff73" d="M 11.714844 15.355469 C 11.6875 15.203125 11.542969 15.097656 11.386719 15.125 L 10.875 15.207031 C 10.71875 15.234375 10.613281 15.378906 10.640625 15.535156 C 10.667969 15.6875 10.8125 15.792969 10.964844 15.765625 L 11.480469 15.683594 C 11.632812 15.65625 11.738281 15.511719 11.714844 15.355469 " fill-opacity="1" fill-rule="nonzero"/><g clip-path="url(#fa90be6021)"><path fill="#00ff73" d="M 11.746094 15.671875 L 11.320312 15.738281 C 11.167969 15.761719 11.0625 15.910156 11.089844 16.0625 C 11.113281 16.214844 11.261719 16.320312 11.414062 16.296875 L 11.835938 16.226562 C 11.992188 16.203125 12.09375 16.058594 12.070312 15.902344 C 12.042969 15.75 11.898438 15.644531 11.746094 15.671875 " fill-opacity="1" fill-rule="nonzero"/></g></svg>