<svg xmlns="http://www.w3.org/2000/svg" xmlns:xlink="http://www.w3.org/1999/xlink" width="40" zoomAndPan="magnify" viewBox="0 0 30 30.000001" height="40" preserveAspectRatio="xMidYMid meet" version="1.0"><defs><clipPath id="f28e0bac09"><path d="M 0.484375 0 L 29.515625 0 L 29.515625 29.03125 L 0.484375 29.03125 Z M 0.484375 0 " clip-rule="nonzero"/></clipPath><clipPath id="96c26af121"><path d="M 8.707031 9 L 10 9 L 10 11 L 8.707031 11 Z M 8.707031 9 " clip-rule="nonzero"/></clipPath><clipPath id="4adb1352fc"><path d="M 8.707031 9 L 10 9 L 10 10 L 8.707031 10 Z M 8.707031 9 " clip-rule="nonzero"/></clipPath><clipPath id="3b466aff93"><path d="M 8.707031 9 L 10 9 L 10 10 L 8.707031 10 Z M 8.707031 9 " clip-rule="nonzero"/></clipPath><clipPath id="0f6537c68f"><path d="M 8.707031 10 L 13 10 L 13 14 L 8.707031 14 Z M 8.707031 10 " clip-rule="nonzero"/></clipPath><clipPath id="a79d364748"><path d="M 12 13 L 15 13 L 15 17.128906 L 12 17.128906 Z M 12 13 " clip-rule="nonzero"/></clipPath><clipPath id="391aeb158b"><path d="M 15 10 L 18.867188 10 L 18.867188 14 L 15 14 Z M 15 10 " clip-rule="nonzero"/></clipPath><clipPath id="f2ff49694e"><path d="M 8.707031 7 L 18 7 L 18 17 L 8.707031 17 Z M 8.707031 7 " clip-rule="nonzero"/></clipPath></defs><g clip-path="url(#f28e0bac09)"><path fill="#ffffff" d="M 0.484375 0 L 29.515625 0 L 29.515625 29.03125 L 0.484375 29.03125 Z M 0.484375 0 " fill-opacity="1" fill-rule="nonzero"/><path fill="#ffffff" d="M 0.484375 0 L 29.515625 0 L 29.515625 29.03125 L 0.484375 29.03125 Z M 0.484375 0 " fill-opacity="1" fill-rule="nonzero"/></g><g clip-path="url(#96c26af121)"><path fill="#00ff73" d="M 9.34375 10.410156 C 9.46875 10.390625 9.5625 10.324219 9.621094 10.214844 C 9.65625 10.160156 9.6875 10.105469 9.710938 10.050781 C 9.648438 10.117188 9.574219 10.164062 9.488281 10.191406 C 9.398438 10.222656 9.304688 10.230469 9.210938 10.207031 C 9.179688 10.203125 9.148438 10.1875 9.121094 10.167969 C 9.238281 10.167969 9.351562 10.148438 9.460938 10.109375 C 9.546875 10.082031 9.632812 10.042969 9.707031 9.992188 C 9.640625 9.988281 9.578125 9.929688 9.523438 9.90625 C 9.421875 9.859375 9.320312 9.863281 9.21875 9.910156 C 9.136719 9.960938 9.0625 10.023438 9.007812 10.105469 C 8.921875 10.195312 8.820312 10.253906 8.703125 10.285156 C 8.769531 10.285156 8.832031 10.296875 8.894531 10.324219 C 9.039062 10.375 9.1875 10.40625 9.34375 10.410156 " fill-opacity="1" fill-rule="nonzero"/></g><g clip-path="url(#4adb1352fc)"><path fill="#00ff73" d="M 9.542969 9.261719 C 9.664062 9.296875 9.75 9.371094 9.792969 9.492188 C 9.820312 9.546875 9.84375 9.605469 9.859375 9.664062 C 9.742188 9.503906 9.585938 9.429688 9.386719 9.441406 C 9.351562 9.445312 9.320312 9.453125 9.289062 9.46875 C 9.402344 9.488281 9.515625 9.519531 9.621094 9.574219 C 9.703125 9.613281 9.777344 9.660156 9.851562 9.71875 C 9.78125 9.714844 9.714844 9.769531 9.652344 9.785156 C 9.546875 9.8125 9.445312 9.800781 9.351562 9.742188 C 9.277344 9.679688 9.214844 9.605469 9.167969 9.519531 C 9.097656 9.417969 9.003906 9.347656 8.890625 9.300781 C 8.953125 9.308594 9.019531 9.304688 9.082031 9.285156 C 9.234375 9.253906 9.386719 9.246094 9.542969 9.261719 " fill-opacity="1" fill-rule="nonzero"/></g><path fill="#00ff73" d="M 10.230469 9.429688 C 10.238281 9.519531 10.207031 9.597656 10.136719 9.65625 C 10.109375 9.6875 10.074219 9.71875 10.039062 9.746094 C 10.074219 9.691406 10.09375 9.632812 10.101562 9.566406 C 10.109375 9.496094 10.097656 9.433594 10.070312 9.371094 C 10.058594 9.347656 10.042969 9.328125 10.027344 9.3125 C 10.054688 9.460938 10.046875 9.605469 9.996094 9.75 C 9.984375 9.703125 9.933594 9.671875 9.90625 9.636719 C 9.859375 9.570312 9.84375 9.5 9.859375 9.421875 C 9.882812 9.355469 9.917969 9.292969 9.964844 9.242188 C 10.011719 9.167969 10.039062 9.085938 10.042969 9 C 10.039062 9.039062 10.082031 9.09375 10.097656 9.125 C 10.160156 9.21875 10.203125 9.320312 10.230469 9.429688 " fill-opacity="1" fill-rule="nonzero"/><path fill="#00ff73" d="M 10.035156 10.402344 C 10.058594 10.3125 10.042969 10.234375 9.984375 10.164062 C 9.960938 10.125 9.929688 10.089844 9.898438 10.058594 C 9.925781 10.117188 9.9375 10.179688 9.933594 10.246094 C 9.929688 10.3125 9.90625 10.375 9.867188 10.433594 C 9.851562 10.453125 9.835938 10.46875 9.816406 10.484375 C 9.847656 10.40625 9.863281 10.324219 9.871094 10.238281 C 9.875 10.175781 9.875 10.109375 9.863281 10.042969 C 9.839844 10.089844 9.785156 10.109375 9.753906 10.144531 C 9.695312 10.199219 9.667969 10.265625 9.667969 10.34375 C 9.679688 10.414062 9.703125 10.480469 9.742188 10.542969 C 9.777344 10.621094 9.789062 10.707031 9.777344 10.792969 C 9.78125 10.753906 9.832031 10.707031 9.855469 10.675781 C 9.929688 10.59375 9.992188 10.503906 10.039062 10.402344 " fill-opacity="1" fill-rule="nonzero"/><path fill="#00ff73" d="M 10.476562 9.664062 C 10.445312 9.710938 10.40625 9.738281 10.347656 9.742188 C 10.324219 9.75 10.296875 9.75 10.269531 9.75 C 10.304688 9.738281 10.335938 9.714844 10.363281 9.6875 C 10.390625 9.65625 10.410156 9.617188 10.417969 9.578125 C 10.421875 9.5625 10.421875 9.546875 10.417969 9.53125 C 10.398438 9.582031 10.371094 9.625 10.335938 9.660156 C 10.308594 9.691406 10.277344 9.71875 10.246094 9.742188 C 10.25 9.710938 10.246094 9.679688 10.242188 9.652344 C 10.242188 9.601562 10.257812 9.5625 10.296875 9.527344 C 10.332031 9.503906 10.367188 9.488281 10.410156 9.476562 C 10.460938 9.457031 10.503906 9.425781 10.535156 9.386719 C 10.523438 9.410156 10.519531 9.4375 10.519531 9.46875 C 10.515625 9.535156 10.5 9.601562 10.476562 9.664062 " fill-opacity="1" fill-rule="nonzero"/><path fill="#00ff73" d="M 10.34375 10.207031 C 10.320312 10.15625 10.285156 10.125 10.230469 10.109375 C 10.207031 10.097656 10.179688 10.09375 10.152344 10.085938 C 10.226562 10.132812 10.265625 10.199219 10.269531 10.285156 C 10.269531 10.300781 10.265625 10.3125 10.261719 10.328125 C 10.25 10.277344 10.230469 10.230469 10.203125 10.1875 C 10.179688 10.152344 10.15625 10.121094 10.128906 10.09375 C 10.125 10.125 10.121094 10.152344 10.109375 10.183594 C 10.101562 10.230469 10.109375 10.273438 10.140625 10.3125 C 10.171875 10.339844 10.207031 10.367188 10.246094 10.382812 C 10.292969 10.410156 10.328125 10.445312 10.351562 10.496094 C 10.34375 10.464844 10.34375 10.4375 10.351562 10.410156 C 10.359375 10.339844 10.355469 10.273438 10.34375 10.207031 " fill-opacity="1" fill-rule="nonzero"/><path fill="#00ff73" d="M 9.886719 9.042969 C 9.894531 9.097656 9.882812 9.144531 9.84375 9.1875 C 9.828125 9.207031 9.808594 9.226562 9.789062 9.246094 C 9.808594 9.210938 9.816406 9.175781 9.816406 9.132812 C 9.816406 9.09375 9.804688 9.054688 9.785156 9.015625 C 9.777344 9.003906 9.765625 8.992188 9.753906 8.984375 C 9.769531 9.03125 9.777344 9.082031 9.777344 9.132812 C 9.777344 9.175781 9.773438 9.214844 9.765625 9.253906 C 9.753906 9.226562 9.722656 9.210938 9.703125 9.1875 C 9.667969 9.152344 9.65625 9.109375 9.660156 9.0625 C 9.667969 9.019531 9.6875 8.980469 9.710938 8.945312 C 9.738281 8.898438 9.746094 8.847656 9.742188 8.792969 C 9.746094 8.820312 9.773438 8.847656 9.785156 8.867188 C 9.828125 8.921875 9.863281 8.980469 9.886719 9.042969 " fill-opacity="1" fill-rule="nonzero"/><g clip-path="url(#3b466aff93)"><path fill="#00ff73" d="M 9.007812 9.640625 C 9.066406 9.636719 9.113281 9.65625 9.148438 9.695312 C 9.167969 9.714844 9.1875 9.734375 9.203125 9.757812 C 9.128906 9.710938 9.054688 9.703125 8.972656 9.738281 C 8.960938 9.746094 8.949219 9.753906 8.9375 9.765625 C 8.988281 9.753906 9.039062 9.753906 9.089844 9.757812 C 9.132812 9.761719 9.171875 9.769531 9.207031 9.78125 C 9.179688 9.792969 9.160156 9.824219 9.136719 9.839844 C 9.097656 9.867188 9.054688 9.878906 9.007812 9.867188 C 8.96875 9.855469 8.929688 9.835938 8.898438 9.808594 C 8.851562 9.777344 8.804688 9.761719 8.75 9.761719 C 8.773438 9.761719 8.804688 9.734375 8.828125 9.726562 C 8.882812 9.6875 8.945312 9.660156 9.011719 9.640625 " fill-opacity="1" fill-rule="nonzero"/></g><g clip-path="url(#0f6537c68f)"><path fill="#00ff73" d="M 12.132812 13.109375 L 9.863281 13.109375 C 9.722656 13.109375 9.585938 13.082031 9.457031 13.027344 C 9.324219 12.976562 9.210938 12.898438 9.109375 12.796875 C 9.007812 12.695312 8.933594 12.582031 8.878906 12.449219 C 8.824219 12.320312 8.796875 12.183594 8.796875 12.042969 C 8.796875 11.902344 8.824219 11.765625 8.878906 11.632812 C 8.933594 11.503906 9.011719 11.386719 9.109375 11.289062 C 9.210938 11.1875 9.324219 11.109375 9.457031 11.054688 C 9.585938 11 9.722656 10.972656 9.863281 10.972656 L 11.53125 10.972656 C 12.402344 11.523438 12.65625 12.214844 12.132812 13.109375 " fill-opacity="1" fill-rule="evenodd"/></g><g clip-path="url(#a79d364748)"><path fill="#00ff73" d="M 14.890625 13.5625 L 14.890625 16 C 14.890625 16.140625 14.863281 16.277344 14.808594 16.410156 C 14.753906 16.539062 14.675781 16.65625 14.578125 16.753906 C 14.476562 16.855469 14.359375 16.933594 14.230469 16.988281 C 14.101562 17.039062 13.964844 17.066406 13.820312 17.070312 C 13.679688 17.066406 13.542969 17.039062 13.414062 16.988281 C 13.28125 16.933594 13.167969 16.855469 13.066406 16.753906 C 12.96875 16.65625 12.890625 16.539062 12.835938 16.410156 C 12.78125 16.277344 12.753906 16.140625 12.753906 16 L 12.753906 15.492188 C 13.546875 14.941406 14.261719 14.296875 14.890625 13.5625 " fill-opacity="1" fill-rule="evenodd"/></g><g clip-path="url(#391aeb158b)"><path fill="#00ff73" d="M 16.699219 10.972656 L 17.78125 10.972656 C 17.921875 10.972656 18.058594 11 18.1875 11.054688 C 18.320312 11.109375 18.433594 11.1875 18.535156 11.289062 C 18.632812 11.386719 18.710938 11.503906 18.765625 11.632812 C 18.820312 11.765625 18.847656 11.902344 18.847656 12.042969 C 18.847656 12.183594 18.820312 12.320312 18.765625 12.449219 C 18.710938 12.582031 18.632812 12.695312 18.535156 12.796875 C 18.433594 12.898438 18.320312 12.972656 18.1875 13.027344 C 18.058594 13.082031 17.921875 13.109375 17.78125 13.109375 L 15.265625 13.109375 C 15.445312 12.886719 15.617188 12.65625 15.785156 12.425781 C 16.117188 11.957031 16.421875 11.472656 16.699219 10.972656 " fill-opacity="1" fill-rule="evenodd"/></g><g clip-path="url(#f2ff49694e)"><path fill="#12386c" d="M 9.824219 9.847656 C 9.824219 9.847656 10.023438 9.8125 11.011719 10.074219 C 12 10.335938 13.398438 10.421875 13.992188 10.292969 C 14.589844 10.164062 15.878906 9.390625 17.058594 8.039062 C 18.585938 6.292969 15.226562 16.304688 8.746094 16.453125 C 8.746094 16.453125 17.101562 11.933594 9.824219 9.847656 " fill-opacity="1" fill-rule="evenodd"/></g><path fill="#12386c" d="M 13.472656 7.148438 C 13.613281 7.148438 13.75 7.175781 13.882812 7.230469 C 14.011719 7.285156 14.128906 7.363281 14.230469 7.464844 C 14.328125 7.5625 14.40625 7.679688 14.460938 7.808594 C 14.515625 7.941406 14.542969 8.078125 14.542969 8.21875 C 14.542969 8.359375 14.515625 8.496094 14.460938 8.628906 C 14.40625 8.757812 14.328125 8.875 14.230469 8.972656 C 14.128906 9.074219 14.011719 9.152344 13.882812 9.207031 C 13.75 9.261719 13.613281 9.289062 13.472656 9.289062 C 13.332031 9.289062 13.195312 9.261719 13.0625 9.207031 C 12.933594 9.152344 12.816406 9.074219 12.71875 8.976562 C 12.617188 8.875 12.539062 8.757812 12.484375 8.628906 C 12.433594 8.496094 12.40625 8.359375 12.40625 8.21875 C 12.40625 8.078125 12.433594 7.941406 12.484375 7.808594 C 12.539062 7.679688 12.617188 7.5625 12.71875 7.464844 C 12.816406 7.363281 12.933594 7.285156 13.0625 7.230469 C 13.195312 7.175781 13.332031 7.148438 13.472656 7.148438 " fill-opacity="1" fill-rule="evenodd"/></svg>