<svg xmlns="http://www.w3.org/2000/svg" xmlns:xlink="http://www.w3.org/1999/xlink" width="500" zoomAndPan="magnify" viewBox="0 0 375 374.999991" height="500" preserveAspectRatio="xMidYMid meet" version="1.0"><defs><filter x="0%" y="0%" width="100%" height="100%" id="1617c022a4"><feColorMatrix values="0 0 0 0 1 0 0 0 0 1 0 0 0 0 1 0 0 0 1 0" color-interpolation-filters="sRGB"/></filter><g/><clipPath id="fd6d5c308d"><path d="M 98.097656 174.339844 L 100.921875 174.339844 L 100.921875 207.386719 L 98.097656 207.386719 Z M 98.097656 174.339844 " clip-rule="nonzero"/></clipPath><mask id="c7f3269d40"><g filter="url(#1617c022a4)"><rect x="-37.5" width="450" fill="#000000" y="-37.499999" height="449.999989" fill-opacity="0.9"/></g></mask><clipPath id="cf08d2177b"><rect x="0" width="19" y="0" height="47"/></clipPath></defs><g fill="#55e495" fill-opacity="1"><g transform="translate(111.201823, 165.287142)"><g><path d="M -7.15625 26.484375 C -9.175781 26.484375 -10.664062 25.882812 -11.625 24.6875 C -12.59375 23.488281 -13.078125 21.890625 -13.078125 19.890625 L -13.078125 17.53125 L -10.296875 17.53125 L -10.296875 20.03125 C -10.296875 21.226562 -10.050781 22.15625 -9.5625 22.8125 C -9.082031 23.476562 -8.304688 23.8125 -7.234375 23.8125 C -6.179688 23.8125 -5.40625 23.476562 -4.90625 22.8125 C -4.40625 22.15625 -4.15625 21.226562 -4.15625 20.03125 L -4.15625 6.1875 C -4.15625 4.976562 -4.40625 4.039062 -4.90625 3.375 C -5.40625 2.71875 -6.179688 2.390625 -7.234375 2.390625 C -8.304688 2.390625 -9.082031 2.71875 -9.5625 3.375 C -10.050781 4.039062 -10.296875 4.976562 -10.296875 6.1875 L -10.296875 9.59375 L -13.078125 9.59375 L -13.078125 6.328125 C -13.078125 4.328125 -12.59375 2.726562 -11.625 1.53125 C -10.664062 0.332031 -9.175781 -0.265625 -7.15625 -0.265625 C -5.15625 -0.265625 -3.671875 0.332031 -2.703125 1.53125 C -1.742188 2.726562 -1.265625 4.328125 -1.265625 6.328125 L -1.265625 19.890625 C -1.265625 20.890625 -1.382812 21.789062 -1.625 22.59375 C -1.863281 23.40625 -2.226562 24.097656 -2.71875 24.671875 C -3.207031 25.253906 -3.816406 25.703125 -4.546875 26.015625 C -5.285156 26.328125 -6.15625 26.484375 -7.15625 26.484375 Z M -7.15625 26.484375 "/></g></g></g><g fill="#55e495" fill-opacity="1"><g transform="translate(111.187555, 189.590933)"><g><path d="M -7.15625 26.484375 C -9.175781 26.484375 -10.664062 25.882812 -11.625 24.6875 C -12.59375 23.488281 -13.078125 21.890625 -13.078125 19.890625 L -13.078125 17.53125 L -10.296875 17.53125 L -10.296875 20.03125 C -10.296875 21.226562 -10.050781 22.15625 -9.5625 22.8125 C -9.082031 23.476562 -8.304688 23.8125 -7.234375 23.8125 C -6.179688 23.8125 -5.40625 23.476562 -4.90625 22.8125 C -4.40625 22.15625 -4.15625 21.226562 -4.15625 20.03125 L -4.15625 6.1875 C -4.15625 4.976562 -4.40625 4.039062 -4.90625 3.375 C -5.40625 2.71875 -6.179688 2.390625 -7.234375 2.390625 C -8.304688 2.390625 -9.082031 2.71875 -9.5625 3.375 C -10.050781 4.039062 -10.296875 4.976562 -10.296875 6.1875 L -10.296875 9.59375 L -13.078125 9.59375 L -13.078125 6.328125 C -13.078125 4.328125 -12.59375 2.726562 -11.625 1.53125 C -10.664062 0.332031 -9.175781 -0.265625 -7.15625 -0.265625 C -5.15625 -0.265625 -3.671875 0.332031 -2.703125 1.53125 C -1.742188 2.726562 -1.265625 4.328125 -1.265625 6.328125 L -1.265625 19.890625 C -1.265625 20.890625 -1.382812 21.789062 -1.625 22.59375 C -1.863281 23.40625 -2.226562 24.097656 -2.71875 24.671875 C -3.207031 25.253906 -3.816406 25.703125 -4.546875 26.015625 C -5.285156 26.328125 -6.15625 26.484375 -7.15625 26.484375 Z M -7.15625 26.484375 "/></g></g></g><g clip-path="url(#fd6d5c308d)"><path fill="#55e495" d="M 98.097656 174.339844 L 100.921875 174.339844 L 100.921875 207.382812 L 98.097656 207.382812 Z M 98.097656 174.339844 " fill-opacity="1" fill-rule="nonzero"/></g><g mask="url(#c7f3269d40)"><g transform="matrix(1, 0, 0, 1, 89, 172)"><g clip-path="url(#cf08d2177b)"><g fill="#002860" fill-opacity="1"><g transform="translate(0.581583, 34.780993)"><g><path d="M 8.78125 -32.484375 C 11.257812 -32.484375 13.085938 -31.75 14.265625 -30.28125 C 15.441406 -28.8125 16.03125 -26.851562 16.03125 -24.40625 L 16.03125 -21.5 L 12.640625 -21.5 L 12.640625 -24.578125 C 12.640625 -26.054688 12.335938 -27.195312 11.734375 -28 C 11.140625 -28.8125 10.1875 -29.21875 8.875 -29.21875 C 7.582031 -29.21875 6.628906 -28.8125 6.015625 -28 C 5.398438 -27.195312 5.09375 -26.054688 5.09375 -24.578125 L 5.09375 -7.578125 C 5.09375 -6.109375 5.398438 -4.96875 6.015625 -4.15625 C 6.628906 -3.34375 7.582031 -2.9375 8.875 -2.9375 C 10.1875 -2.9375 11.140625 -3.34375 11.734375 -4.15625 C 12.335938 -4.96875 12.640625 -6.109375 12.640625 -7.578125 L 12.640625 -11.765625 L 16.03125 -11.765625 L 16.03125 -7.765625 C 16.03125 -5.316406 15.441406 -3.351562 14.265625 -1.875 C 13.085938 -0.40625 11.257812 0.328125 8.78125 0.328125 C 6.320312 0.328125 4.503906 -0.40625 3.328125 -1.875 C 2.148438 -3.351562 1.5625 -5.316406 1.5625 -7.765625 L 1.5625 -24.40625 C 1.5625 -25.625 1.707031 -26.726562 2 -27.71875 C 2.289062 -28.71875 2.734375 -29.570312 3.328125 -30.28125 C 3.929688 -30.988281 4.679688 -31.53125 5.578125 -31.90625 C 6.484375 -32.289062 7.550781 -32.484375 8.78125 -32.484375 Z M 8.78125 -32.484375 "/></g></g></g></g></g></g><g fill="#002860" fill-opacity="1"><g transform="translate(114.971006, 178.290982)"><g><path d="M 5.5 -2.09375 C 5.445312 -1.414062 5.195312 -0.878906 4.75 -0.484375 C 4.300781 -0.0976562 3.707031 0.09375 2.96875 0.09375 C 2.15625 0.09375 1.519531 -0.175781 1.0625 -0.71875 C 0.601562 -1.269531 0.375 -2.019531 0.375 -2.96875 L 0.375 -3.34375 C 0.375 -3.945312 0.476562 -4.476562 0.6875 -4.9375 C 0.90625 -5.40625 1.210938 -5.757812 1.609375 -6 C 2.003906 -6.25 2.460938 -6.375 2.984375 -6.375 C 3.710938 -6.375 4.296875 -6.175781 4.734375 -5.78125 C 5.179688 -5.394531 5.4375 -4.851562 5.5 -4.15625 L 4.203125 -4.15625 C 4.171875 -4.5625 4.054688 -4.851562 3.859375 -5.03125 C 3.671875 -5.21875 3.378906 -5.3125 2.984375 -5.3125 C 2.554688 -5.3125 2.234375 -5.15625 2.015625 -4.84375 C 1.796875 -4.539062 1.6875 -4.0625 1.6875 -3.40625 L 1.6875 -2.9375 C 1.6875 -2.25 1.785156 -1.75 1.984375 -1.4375 C 2.191406 -1.125 2.519531 -0.96875 2.96875 -0.96875 C 3.363281 -0.96875 3.660156 -1.054688 3.859375 -1.234375 C 4.054688 -1.421875 4.171875 -1.707031 4.203125 -2.09375 Z M 5.5 -2.09375 "/></g></g></g><g fill="#002860" fill-opacity="1"><g transform="translate(120.719419, 178.290982)"><g><path d="M 5.71875 -3 C 5.71875 -2.382812 5.609375 -1.84375 5.390625 -1.375 C 5.171875 -0.90625 4.859375 -0.539062 4.453125 -0.28125 C 4.046875 -0.03125 3.582031 0.09375 3.0625 0.09375 C 2.539062 0.09375 2.070312 -0.03125 1.65625 -0.28125 C 1.25 -0.539062 0.929688 -0.898438 0.703125 -1.359375 C 0.484375 -1.828125 0.375 -2.363281 0.375 -2.96875 L 0.375 -3.28125 C 0.375 -3.894531 0.484375 -4.4375 0.703125 -4.90625 C 0.929688 -5.382812 1.25 -5.75 1.65625 -6 C 2.0625 -6.25 2.523438 -6.375 3.046875 -6.375 C 3.566406 -6.375 4.03125 -6.25 4.4375 -6 C 4.851562 -5.75 5.171875 -5.382812 5.390625 -4.90625 C 5.609375 -4.4375 5.71875 -3.894531 5.71875 -3.28125 Z M 4.40625 -3.28125 C 4.40625 -3.945312 4.285156 -4.445312 4.046875 -4.78125 C 3.816406 -5.125 3.484375 -5.296875 3.046875 -5.296875 C 2.609375 -5.296875 2.269531 -5.125 2.03125 -4.78125 C 1.800781 -4.445312 1.6875 -3.957031 1.6875 -3.3125 L 1.6875 -3 C 1.6875 -2.351562 1.800781 -1.851562 2.03125 -1.5 C 2.269531 -1.144531 2.613281 -0.96875 3.0625 -0.96875 C 3.488281 -0.96875 3.816406 -1.140625 4.046875 -1.484375 C 4.285156 -1.828125 4.40625 -2.328125 4.40625 -2.984375 Z M 4.40625 -3.28125 "/></g></g></g><g fill="#002860" fill-opacity="1"><g transform="translate(126.787235, 178.290982)"><g><path d="M 2.890625 -2.296875 L 1.859375 -2.296875 L 1.859375 0 L 0.5625 0 L 0.5625 -6.28125 L 2.890625 -6.28125 C 3.640625 -6.28125 4.210938 -6.113281 4.609375 -5.78125 C 5.015625 -5.457031 5.21875 -4.992188 5.21875 -4.390625 C 5.21875 -3.960938 5.125 -3.601562 4.9375 -3.3125 C 4.75 -3.03125 4.46875 -2.800781 4.09375 -2.625 L 5.453125 -0.0625 L 5.453125 0 L 4.0625 0 Z M 1.859375 -3.34375 L 2.90625 -3.34375 C 3.226562 -3.34375 3.476562 -3.425781 3.65625 -3.59375 C 3.832031 -3.757812 3.921875 -3.988281 3.921875 -4.28125 C 3.921875 -4.582031 3.835938 -4.816406 3.671875 -4.984375 C 3.503906 -5.148438 3.242188 -5.234375 2.890625 -5.234375 L 1.859375 -5.234375 Z M 1.859375 -3.34375 "/></g></g></g><g fill="#002860" fill-opacity="1"><g transform="translate(132.393214, 178.290982)"><g><path d="M 0.5625 0 L 0.5625 -6.28125 L 2.765625 -6.28125 C 3.523438 -6.28125 4.101562 -6.132812 4.5 -5.84375 C 4.894531 -5.550781 5.09375 -5.125 5.09375 -4.5625 C 5.09375 -4.257812 5.007812 -3.988281 4.84375 -3.75 C 4.6875 -3.519531 4.46875 -3.347656 4.1875 -3.234375 C 4.507812 -3.148438 4.765625 -2.984375 4.953125 -2.734375 C 5.140625 -2.492188 5.234375 -2.195312 5.234375 -1.84375 C 5.234375 -1.238281 5.039062 -0.78125 4.65625 -0.46875 C 4.269531 -0.164062 3.71875 -0.0078125 3 0 Z M 1.859375 -2.734375 L 1.859375 -1.046875 L 2.96875 -1.046875 C 3.269531 -1.046875 3.503906 -1.117188 3.671875 -1.265625 C 3.847656 -1.410156 3.9375 -1.609375 3.9375 -1.859375 C 3.9375 -2.429688 3.640625 -2.722656 3.046875 -2.734375 Z M 1.859375 -3.65625 L 2.8125 -3.65625 C 3.46875 -3.664062 3.796875 -3.925781 3.796875 -4.4375 C 3.796875 -4.71875 3.710938 -4.921875 3.546875 -5.046875 C 3.378906 -5.171875 3.117188 -5.234375 2.765625 -5.234375 L 1.859375 -5.234375 Z M 1.859375 -3.65625 "/></g></g></g><g fill="#002860" fill-opacity="1"><g transform="translate(137.999192, 178.290982)"><g><path d="M 5.3125 -6.28125 L 5.3125 -2.140625 C 5.3125 -1.453125 5.097656 -0.90625 4.671875 -0.5 C 4.242188 -0.101562 3.65625 0.09375 2.90625 0.09375 C 2.175781 0.09375 1.59375 -0.0976562 1.15625 -0.484375 C 0.726562 -0.878906 0.507812 -1.414062 0.5 -2.09375 L 0.5 -6.28125 L 1.796875 -6.28125 L 1.796875 -2.140625 C 1.796875 -1.722656 1.894531 -1.421875 2.09375 -1.234375 C 2.289062 -1.046875 2.5625 -0.953125 2.90625 -0.953125 C 3.632812 -0.953125 4.003906 -1.335938 4.015625 -2.109375 L 4.015625 -6.28125 Z M 5.3125 -6.28125 "/></g></g></g><g fill="#002860" fill-opacity="1"><g transform="translate(143.782134, 178.290982)"><g><path d="M 3.828125 -1.65625 C 3.828125 -1.894531 3.738281 -2.078125 3.5625 -2.203125 C 3.382812 -2.335938 3.070312 -2.476562 2.625 -2.625 C 2.175781 -2.769531 1.820312 -2.914062 1.5625 -3.0625 C 0.851562 -3.445312 0.5 -3.960938 0.5 -4.609375 C 0.5 -4.953125 0.59375 -5.253906 0.78125 -5.515625 C 0.96875 -5.785156 1.238281 -5.992188 1.59375 -6.140625 C 1.957031 -6.296875 2.363281 -6.375 2.8125 -6.375 C 3.257812 -6.375 3.65625 -6.289062 4 -6.125 C 4.351562 -5.96875 4.628906 -5.738281 4.828125 -5.4375 C 5.023438 -5.144531 5.125 -4.8125 5.125 -4.4375 L 3.828125 -4.4375 C 3.828125 -4.71875 3.734375 -4.9375 3.546875 -5.09375 C 3.367188 -5.257812 3.117188 -5.34375 2.796875 -5.34375 C 2.472656 -5.34375 2.222656 -5.273438 2.046875 -5.140625 C 1.867188 -5.003906 1.78125 -4.828125 1.78125 -4.609375 C 1.78125 -4.410156 1.882812 -4.238281 2.09375 -4.09375 C 2.300781 -3.957031 2.601562 -3.828125 3 -3.703125 C 3.738281 -3.484375 4.273438 -3.207031 4.609375 -2.875 C 4.953125 -2.550781 5.125 -2.144531 5.125 -1.65625 C 5.125 -1.113281 4.914062 -0.6875 4.5 -0.375 C 4.09375 -0.0625 3.539062 0.09375 2.84375 0.09375 C 2.351562 0.09375 1.910156 0.00390625 1.515625 -0.171875 C 1.117188 -0.347656 0.816406 -0.59375 0.609375 -0.90625 C 0.398438 -1.21875 0.296875 -1.578125 0.296875 -1.984375 L 1.59375 -1.984375 C 1.59375 -1.285156 2.007812 -0.9375 2.84375 -0.9375 C 3.144531 -0.9375 3.382812 -1 3.5625 -1.125 C 3.738281 -1.25 3.828125 -1.425781 3.828125 -1.65625 Z M 3.828125 -1.65625 "/></g></g></g><g fill="#002860" fill-opacity="1"><g transform="translate(149.180931, 178.290982)"><g><path d="M 1.9375 0 L 0.640625 0 L 0.640625 -6.28125 L 1.9375 -6.28125 Z M 1.9375 0 "/></g></g></g><g fill="#002860" fill-opacity="1"><g transform="translate(151.722367, 178.290982)"><g><path d="M 4.34375 -2.71875 L 1.859375 -2.71875 L 1.859375 -1.046875 L 4.78125 -1.046875 L 4.78125 0 L 0.5625 0 L 0.5625 -6.28125 L 4.765625 -6.28125 L 4.765625 -5.234375 L 1.859375 -5.234375 L 1.859375 -3.734375 L 4.34375 -3.734375 Z M 4.34375 -2.71875 "/></g></g></g><g fill="#002860" fill-opacity="1"><g transform="translate(156.659324, 178.290982)"><g><path d="M 2.890625 -2.296875 L 1.859375 -2.296875 L 1.859375 0 L 0.5625 0 L 0.5625 -6.28125 L 2.890625 -6.28125 C 3.640625 -6.28125 4.210938 -6.113281 4.609375 -5.78125 C 5.015625 -5.457031 5.21875 -4.992188 5.21875 -4.390625 C 5.21875 -3.960938 5.125 -3.601562 4.9375 -3.3125 C 4.75 -3.03125 4.46875 -2.800781 4.09375 -2.625 L 5.453125 -0.0625 L 5.453125 0 L 4.0625 0 Z M 1.859375 -3.34375 L 2.90625 -3.34375 C 3.226562 -3.34375 3.476562 -3.425781 3.65625 -3.59375 C 3.832031 -3.757812 3.921875 -3.988281 3.921875 -4.28125 C 3.921875 -4.582031 3.835938 -4.816406 3.671875 -4.984375 C 3.503906 -5.148438 3.242188 -5.234375 2.890625 -5.234375 L 1.859375 -5.234375 Z M 1.859375 -3.34375 "/></g></g></g><g fill="#002860" fill-opacity="1"><g transform="translate(114.971006, 190.522404)"><g><path d="M 0.5625 0 L 0.5625 -6.28125 L 2.765625 -6.28125 C 3.523438 -6.28125 4.101562 -6.132812 4.5 -5.84375 C 4.894531 -5.550781 5.09375 -5.125 5.09375 -4.5625 C 5.09375 -4.257812 5.007812 -3.988281 4.84375 -3.75 C 4.6875 -3.519531 4.46875 -3.347656 4.1875 -3.234375 C 4.507812 -3.148438 4.765625 -2.984375 4.953125 -2.734375 C 5.140625 -2.492188 5.234375 -2.195312 5.234375 -1.84375 C 5.234375 -1.238281 5.039062 -0.78125 4.65625 -0.46875 C 4.269531 -0.164062 3.71875 -0.0078125 3 0 Z M 1.859375 -2.734375 L 1.859375 -1.046875 L 2.96875 -1.046875 C 3.269531 -1.046875 3.503906 -1.117188 3.671875 -1.265625 C 3.847656 -1.410156 3.9375 -1.609375 3.9375 -1.859375 C 3.9375 -2.429688 3.640625 -2.722656 3.046875 -2.734375 Z M 1.859375 -3.65625 L 2.8125 -3.65625 C 3.46875 -3.664062 3.796875 -3.925781 3.796875 -4.4375 C 3.796875 -4.71875 3.710938 -4.921875 3.546875 -5.046875 C 3.378906 -5.171875 3.117188 -5.234375 2.765625 -5.234375 L 1.859375 -5.234375 Z M 1.859375 -3.65625 "/></g></g></g><g fill="#002860" fill-opacity="1"><g transform="translate(120.576984, 190.522404)"><g><path d="M 5.3125 -6.28125 L 5.3125 -2.140625 C 5.3125 -1.453125 5.097656 -0.90625 4.671875 -0.5 C 4.242188 -0.101562 3.65625 0.09375 2.90625 0.09375 C 2.175781 0.09375 1.59375 -0.0976562 1.15625 -0.484375 C 0.726562 -0.878906 0.507812 -1.414062 0.5 -2.09375 L 0.5 -6.28125 L 1.796875 -6.28125 L 1.796875 -2.140625 C 1.796875 -1.722656 1.894531 -1.421875 2.09375 -1.234375 C 2.289062 -1.046875 2.5625 -0.953125 2.90625 -0.953125 C 3.632812 -0.953125 4.003906 -1.335938 4.015625 -2.109375 L 4.015625 -6.28125 Z M 5.3125 -6.28125 "/></g></g></g><g fill="#002860" fill-opacity="1"><g transform="translate(126.359927, 190.522404)"><g><path d="M 3.828125 -1.65625 C 3.828125 -1.894531 3.738281 -2.078125 3.5625 -2.203125 C 3.382812 -2.335938 3.070312 -2.476562 2.625 -2.625 C 2.175781 -2.769531 1.820312 -2.914062 1.5625 -3.0625 C 0.851562 -3.445312 0.5 -3.960938 0.5 -4.609375 C 0.5 -4.953125 0.59375 -5.253906 0.78125 -5.515625 C 0.96875 -5.785156 1.238281 -5.992188 1.59375 -6.140625 C 1.957031 -6.296875 2.363281 -6.375 2.8125 -6.375 C 3.257812 -6.375 3.65625 -6.289062 4 -6.125 C 4.351562 -5.96875 4.628906 -5.738281 4.828125 -5.4375 C 5.023438 -5.144531 5.125 -4.8125 5.125 -4.4375 L 3.828125 -4.4375 C 3.828125 -4.71875 3.734375 -4.9375 3.546875 -5.09375 C 3.367188 -5.257812 3.117188 -5.34375 2.796875 -5.34375 C 2.472656 -5.34375 2.222656 -5.273438 2.046875 -5.140625 C 1.867188 -5.003906 1.78125 -4.828125 1.78125 -4.609375 C 1.78125 -4.410156 1.882812 -4.238281 2.09375 -4.09375 C 2.300781 -3.957031 2.601562 -3.828125 3 -3.703125 C 3.738281 -3.484375 4.273438 -3.207031 4.609375 -2.875 C 4.953125 -2.550781 5.125 -2.144531 5.125 -1.65625 C 5.125 -1.113281 4.914062 -0.6875 4.5 -0.375 C 4.09375 -0.0625 3.539062 0.09375 2.84375 0.09375 C 2.351562 0.09375 1.910156 0.00390625 1.515625 -0.171875 C 1.117188 -0.347656 0.816406 -0.59375 0.609375 -0.90625 C 0.398438 -1.21875 0.296875 -1.578125 0.296875 -1.984375 L 1.59375 -1.984375 C 1.59375 -1.285156 2.007812 -0.9375 2.84375 -0.9375 C 3.144531 -0.9375 3.382812 -1 3.5625 -1.125 C 3.738281 -1.25 3.828125 -1.425781 3.828125 -1.65625 Z M 3.828125 -1.65625 "/></g></g></g><g fill="#002860" fill-opacity="1"><g transform="translate(131.758725, 190.522404)"><g><path d="M 1.9375 0 L 0.640625 0 L 0.640625 -6.28125 L 1.9375 -6.28125 Z M 1.9375 0 "/></g></g></g><g fill="#002860" fill-opacity="1"><g transform="translate(134.300163, 190.522404)"><g><path d="M 5.671875 0 L 4.375 0 L 1.859375 -4.140625 L 1.859375 0 L 0.5625 0 L 0.5625 -6.28125 L 1.859375 -6.28125 L 4.390625 -2.140625 L 4.390625 -6.28125 L 5.671875 -6.28125 Z M 5.671875 0 "/></g></g></g><g fill="#002860" fill-opacity="1"><g transform="translate(140.506098, 190.522404)"><g><path d="M 4.34375 -2.71875 L 1.859375 -2.71875 L 1.859375 -1.046875 L 4.78125 -1.046875 L 4.78125 0 L 0.5625 0 L 0.5625 -6.28125 L 4.765625 -6.28125 L 4.765625 -5.234375 L 1.859375 -5.234375 L 1.859375 -3.734375 L 4.34375 -3.734375 Z M 4.34375 -2.71875 "/></g></g></g><g fill="#002860" fill-opacity="1"><g transform="translate(145.443057, 190.522404)"><g><path d="M 3.828125 -1.65625 C 3.828125 -1.894531 3.738281 -2.078125 3.5625 -2.203125 C 3.382812 -2.335938 3.070312 -2.476562 2.625 -2.625 C 2.175781 -2.769531 1.820312 -2.914062 1.5625 -3.0625 C 0.851562 -3.445312 0.5 -3.960938 0.5 -4.609375 C 0.5 -4.953125 0.59375 -5.253906 0.78125 -5.515625 C 0.96875 -5.785156 1.238281 -5.992188 1.59375 -6.140625 C 1.957031 -6.296875 2.363281 -6.375 2.8125 -6.375 C 3.257812 -6.375 3.65625 -6.289062 4 -6.125 C 4.351562 -5.96875 4.628906 -5.738281 4.828125 -5.4375 C 5.023438 -5.144531 5.125 -4.8125 5.125 -4.4375 L 3.828125 -4.4375 C 3.828125 -4.71875 3.734375 -4.9375 3.546875 -5.09375 C 3.367188 -5.257812 3.117188 -5.34375 2.796875 -5.34375 C 2.472656 -5.34375 2.222656 -5.273438 2.046875 -5.140625 C 1.867188 -5.003906 1.78125 -4.828125 1.78125 -4.609375 C 1.78125 -4.410156 1.882812 -4.238281 2.09375 -4.09375 C 2.300781 -3.957031 2.601562 -3.828125 3 -3.703125 C 3.738281 -3.484375 4.273438 -3.207031 4.609375 -2.875 C 4.953125 -2.550781 5.125 -2.144531 5.125 -1.65625 C 5.125 -1.113281 4.914062 -0.6875 4.5 -0.375 C 4.09375 -0.0625 3.539062 0.09375 2.84375 0.09375 C 2.351562 0.09375 1.910156 0.00390625 1.515625 -0.171875 C 1.117188 -0.347656 0.816406 -0.59375 0.609375 -0.90625 C 0.398438 -1.21875 0.296875 -1.578125 0.296875 -1.984375 L 1.59375 -1.984375 C 1.59375 -1.285156 2.007812 -0.9375 2.84375 -0.9375 C 3.144531 -0.9375 3.382812 -1 3.5625 -1.125 C 3.738281 -1.25 3.828125 -1.425781 3.828125 -1.65625 Z M 3.828125 -1.65625 "/></g></g></g><g fill="#002860" fill-opacity="1"><g transform="translate(150.841854, 190.522404)"><g><path d="M 3.828125 -1.65625 C 3.828125 -1.894531 3.738281 -2.078125 3.5625 -2.203125 C 3.382812 -2.335938 3.070312 -2.476562 2.625 -2.625 C 2.175781 -2.769531 1.820312 -2.914062 1.5625 -3.0625 C 0.851562 -3.445312 0.5 -3.960938 0.5 -4.609375 C 0.5 -4.953125 0.59375 -5.253906 0.78125 -5.515625 C 0.96875 -5.785156 1.238281 -5.992188 1.59375 -6.140625 C 1.957031 -6.296875 2.363281 -6.375 2.8125 -6.375 C 3.257812 -6.375 3.65625 -6.289062 4 -6.125 C 4.351562 -5.96875 4.628906 -5.738281 4.828125 -5.4375 C 5.023438 -5.144531 5.125 -4.8125 5.125 -4.4375 L 3.828125 -4.4375 C 3.828125 -4.71875 3.734375 -4.9375 3.546875 -5.09375 C 3.367188 -5.257812 3.117188 -5.34375 2.796875 -5.34375 C 2.472656 -5.34375 2.222656 -5.273438 2.046875 -5.140625 C 1.867188 -5.003906 1.78125 -4.828125 1.78125 -4.609375 C 1.78125 -4.410156 1.882812 -4.238281 2.09375 -4.09375 C 2.300781 -3.957031 2.601562 -3.828125 3 -3.703125 C 3.738281 -3.484375 4.273438 -3.207031 4.609375 -2.875 C 4.953125 -2.550781 5.125 -2.144531 5.125 -1.65625 C 5.125 -1.113281 4.914062 -0.6875 4.5 -0.375 C 4.09375 -0.0625 3.539062 0.09375 2.84375 0.09375 C 2.351562 0.09375 1.910156 0.00390625 1.515625 -0.171875 C 1.117188 -0.347656 0.816406 -0.59375 0.609375 -0.90625 C 0.398438 -1.21875 0.296875 -1.578125 0.296875 -1.984375 L 1.59375 -1.984375 C 1.59375 -1.285156 2.007812 -0.9375 2.84375 -0.9375 C 3.144531 -0.9375 3.382812 -1 3.5625 -1.125 C 3.738281 -1.25 3.828125 -1.425781 3.828125 -1.65625 Z M 3.828125 -1.65625 "/></g></g></g><g fill="#002860" fill-opacity="1"><g transform="translate(114.971006, 202.753826)"><g><path d="M 0.5625 0 L 0.5625 -6.28125 L 2.765625 -6.28125 C 3.523438 -6.28125 4.101562 -6.132812 4.5 -5.84375 C 4.894531 -5.550781 5.09375 -5.125 5.09375 -4.5625 C 5.09375 -4.257812 5.007812 -3.988281 4.84375 -3.75 C 4.6875 -3.519531 4.46875 -3.347656 4.1875 -3.234375 C 4.507812 -3.148438 4.765625 -2.984375 4.953125 -2.734375 C 5.140625 -2.492188 5.234375 -2.195312 5.234375 -1.84375 C 5.234375 -1.238281 5.039062 -0.78125 4.65625 -0.46875 C 4.269531 -0.164062 3.71875 -0.0078125 3 0 Z M 1.859375 -2.734375 L 1.859375 -1.046875 L 2.96875 -1.046875 C 3.269531 -1.046875 3.503906 -1.117188 3.671875 -1.265625 C 3.847656 -1.410156 3.9375 -1.609375 3.9375 -1.859375 C 3.9375 -2.429688 3.640625 -2.722656 3.046875 -2.734375 Z M 1.859375 -3.65625 L 2.8125 -3.65625 C 3.46875 -3.664062 3.796875 -3.925781 3.796875 -4.4375 C 3.796875 -4.71875 3.710938 -4.921875 3.546875 -5.046875 C 3.378906 -5.171875 3.117188 -5.234375 2.765625 -5.234375 L 1.859375 -5.234375 Z M 1.859375 -3.65625 "/></g></g></g><g fill="#002860" fill-opacity="1"><g transform="translate(120.576984, 202.753826)"><g><path d="M 4.109375 -1.296875 L 1.84375 -1.296875 L 1.40625 0 L 0.03125 0 L 2.375 -6.28125 L 3.578125 -6.28125 L 5.921875 0 L 4.546875 0 Z M 2.1875 -2.34375 L 3.765625 -2.34375 L 2.96875 -4.703125 Z M 2.1875 -2.34375 "/></g></g></g><g fill="#002860" fill-opacity="1"><g transform="translate(126.489415, 202.753826)"><g><path d="M 5.296875 -5.234375 L 3.375 -5.234375 L 3.375 0 L 2.078125 0 L 2.078125 -5.234375 L 0.171875 -5.234375 L 0.171875 -6.28125 L 5.296875 -6.28125 Z M 5.296875 -5.234375 "/></g></g></g><g fill="#002860" fill-opacity="1"><g transform="translate(131.922743, 202.753826)"><g><path d="M 0.796875 1.578125 L 0.15625 1.234375 L 0.3125 0.953125 C 0.5 0.597656 0.597656 0.25 0.609375 -0.09375 L 0.609375 -1.0625 L 1.65625 -1.0625 L 1.65625 -0.203125 C 1.65625 0.117188 1.570312 0.441406 1.40625 0.765625 C 1.25 1.085938 1.046875 1.359375 0.796875 1.578125 Z M 0.796875 1.578125 "/></g></g></g><g fill="#002860" fill-opacity="1"><g transform="translate(134.045761, 202.753826)"><g/></g></g><path stroke-linecap="round" transform="matrix(0.749987, 0.00438543, -0.00438543, 0.749987, 135.773345, 204.164137)" fill="none" stroke-linejoin="miter" d="M 2.499165 2.500955 L 19.681742 2.499443 " stroke="#55e495" stroke-width="5" stroke-opacity="1" stroke-miterlimit="4"/><g fill="#002860" fill-opacity="1"><g transform="translate(135.756089, 202.880286)"><g><path d="M 4.296875 -4.21875 C 4.316406 -4.332031 4.328125 -4.429688 4.328125 -4.515625 C 4.328125 -4.679688 4.296875 -4.820312 4.234375 -4.9375 C 4.171875 -5.0625 4.082031 -5.164062 3.96875 -5.25 C 3.851562 -5.332031 3.722656 -5.394531 3.578125 -5.4375 C 3.429688 -5.476562 3.273438 -5.5 3.109375 -5.5 C 2.921875 -5.5 2.734375 -5.472656 2.546875 -5.421875 C 2.359375 -5.378906 2.191406 -5.3125 2.046875 -5.21875 C 1.910156 -5.125 1.796875 -5.007812 1.703125 -4.875 C 1.617188 -4.75 1.578125 -4.601562 1.578125 -4.4375 C 1.578125 -4.269531 1.609375 -4.128906 1.671875 -4.015625 C 1.734375 -3.898438 1.828125 -3.800781 1.953125 -3.71875 C 2.085938 -3.644531 2.242188 -3.582031 2.421875 -3.53125 C 2.609375 -3.488281 2.816406 -3.445312 3.046875 -3.40625 C 3.578125 -3.320312 3.96875 -3.148438 4.21875 -2.890625 C 4.46875 -2.628906 4.59375 -2.289062 4.59375 -1.875 C 4.59375 -1.550781 4.53125 -1.265625 4.40625 -1.015625 C 4.28125 -0.765625 4.109375 -0.554688 3.890625 -0.390625 C 3.671875 -0.222656 3.410156 -0.09375 3.109375 0 C 2.816406 0.0820312 2.5 0.125 2.15625 0.125 C 1.820312 0.125 1.53125 0.0820312 1.28125 0 C 1.03125 -0.0820312 0.820312 -0.195312 0.65625 -0.34375 C 0.5 -0.5 0.378906 -0.675781 0.296875 -0.875 C 0.210938 -1.082031 0.171875 -1.3125 0.171875 -1.5625 C 0.171875 -1.726562 0.1875 -1.90625 0.21875 -2.09375 L 0.265625 -2.34375 L 1 -2.34375 L 0.953125 -2.140625 C 0.921875 -1.972656 0.90625 -1.816406 0.90625 -1.671875 C 0.90625 -1.285156 1.019531 -1 1.25 -0.8125 C 1.476562 -0.632812 1.804688 -0.546875 2.234375 -0.546875 C 2.441406 -0.546875 2.640625 -0.570312 2.828125 -0.625 C 3.023438 -0.6875 3.195312 -0.769531 3.34375 -0.875 C 3.488281 -0.988281 3.609375 -1.117188 3.703125 -1.265625 C 3.796875 -1.421875 3.84375 -1.59375 3.84375 -1.78125 C 3.84375 -1.945312 3.816406 -2.085938 3.765625 -2.203125 C 3.710938 -2.316406 3.628906 -2.410156 3.515625 -2.484375 C 3.410156 -2.554688 3.269531 -2.617188 3.09375 -2.671875 C 2.914062 -2.722656 2.707031 -2.769531 2.46875 -2.8125 C 2.21875 -2.851562 1.992188 -2.910156 1.796875 -2.984375 C 1.597656 -3.066406 1.425781 -3.164062 1.28125 -3.28125 C 1.144531 -3.40625 1.035156 -3.550781 0.953125 -3.71875 C 0.867188 -3.882812 0.828125 -4.082031 0.828125 -4.3125 C 0.828125 -4.613281 0.882812 -4.878906 1 -5.109375 C 1.125 -5.335938 1.289062 -5.53125 1.5 -5.6875 C 1.71875 -5.84375 1.96875 -5.960938 2.25 -6.046875 C 2.53125 -6.128906 2.835938 -6.171875 3.171875 -6.171875 C 3.472656 -6.171875 3.738281 -6.128906 3.96875 -6.046875 C 4.207031 -5.960938 4.40625 -5.851562 4.5625 -5.71875 C 4.726562 -5.582031 4.851562 -5.421875 4.9375 -5.234375 C 5.03125 -5.046875 5.078125 -4.851562 5.078125 -4.65625 C 5.078125 -4.59375 5.070312 -4.53125 5.0625 -4.46875 C 5.0625 -4.414062 5.050781 -4.359375 5.03125 -4.296875 L 4.96875 -3.984375 L 4.25 -3.984375 Z M 4.296875 -4.21875 "/></g></g></g><g fill="#002860" fill-opacity="1"><g transform="translate(141.011612, 202.880286)"><g><path d="M 3.625 -1.5 L 1.1875 -1.5 L 0.453125 0 L -0.359375 0 L 2.640625 -6.046875 L 4.015625 -6.046875 L 4.453125 0 L 3.71875 0 Z M 1.515625 -2.171875 L 3.578125 -2.171875 L 3.359375 -5.734375 L 3.25 -5.734375 Z M 1.515625 -2.171875 "/></g></g></g><g fill="#002860" fill-opacity="1"><g transform="translate(146.267135, 202.880286)"><g><path d="M 3.875 0 L 3.140625 0 L 3.578125 -2.015625 C 3.585938 -2.066406 3.59375 -2.125 3.59375 -2.1875 C 3.59375 -2.28125 3.566406 -2.351562 3.515625 -2.40625 C 3.460938 -2.457031 3.367188 -2.484375 3.234375 -2.484375 L 1.328125 -2.484375 L 0.796875 0 L 0.0625 0 L 1.359375 -6.046875 L 3.40625 -6.046875 C 3.914062 -6.046875 4.3125 -5.914062 4.59375 -5.65625 C 4.882812 -5.394531 5.03125 -5.035156 5.03125 -4.578125 C 5.03125 -4.191406 4.925781 -3.859375 4.71875 -3.578125 C 4.519531 -3.304688 4.25 -3.097656 3.90625 -2.953125 L 3.90625 -2.84375 C 4.050781 -2.832031 4.160156 -2.785156 4.234375 -2.703125 C 4.316406 -2.617188 4.359375 -2.507812 4.359375 -2.375 C 4.359375 -2.320312 4.351562 -2.253906 4.34375 -2.171875 Z M 1.46875 -3.15625 L 2.796875 -3.15625 C 3.015625 -3.15625 3.210938 -3.1875 3.390625 -3.25 C 3.578125 -3.320312 3.734375 -3.414062 3.859375 -3.53125 C 3.992188 -3.65625 4.097656 -3.796875 4.171875 -3.953125 C 4.253906 -4.117188 4.296875 -4.300781 4.296875 -4.5 C 4.296875 -4.78125 4.207031 -4.992188 4.03125 -5.140625 C 3.863281 -5.296875 3.609375 -5.375 3.265625 -5.375 L 1.9375 -5.375 Z M 1.46875 -3.15625 "/></g></g></g><g fill="#002860" fill-opacity="1"><g transform="translate(151.522658, 202.880286)"><g><path d="M 1.5 -6.046875 L 2.21875 -6.046875 L 1.078125 -0.671875 L 4.1875 -0.671875 L 4.1875 0 L 0.203125 0 Z M 1.5 -6.046875 "/></g></g></g></svg>